<?xml version="1.0" standalone="no"?>
<!DOCTYPE svg PUBLIC "-//W3C//DTD SVG 20010904//EN"
 "http://www.w3.org/TR/2001/REC-SVG-20010904/DTD/svg10.dtd">
<svg version="1.0" xmlns="http://www.w3.org/2000/svg"
 width="160.000000pt" height="160.000000pt" viewBox="0 0 160.000000 160.000000"
 preserveAspectRatio="xMidYMid meet">
<metadata>
Created by potrace 1.15, written by Peter Selinger 2001-2017
</metadata>
<g transform="translate(0.000000,160.000000) scale(0.100000,-0.100000)"
fill="#000000" stroke="none">
<path d="M632 1544 c-347 -76 -592 -385 -592 -747 0 -210 81 -400 231 -543
161 -154 347 -223 569 -211 199 10 353 79 495 222 143 142 212 296 222 495 12
222 -57 408 -211 569 -146 153 -335 232 -551 230 -55 -1 -128 -7 -163 -15z
m-2 -414 l0 -59 -102 -3 -103 -3 -3 -72 -3 -73 116 0 115 0 0 75 c0 84 14 128
54 165 25 22 38 25 123 29 83 3 99 0 122 -17 26 -19 27 -19 50 -1 34 28 182
27 228 -1 58 -35 68 -67 68 -230 l0 -145 -62 -3 -62 -3 -3 138 -3 138 -60 0
-60 0 -5 -135 -5 -135 -62 -3 -62 -3 -3 138 -3 138 -60 0 -60 0 -5 -135 -5
-135 -190 0 c-180 0 -192 1 -226 23 -53 32 -69 74 -69 177 0 91 10 124 52 161
33 31 41 32 171 33 l117 1 0 -60z m430 -512 l0 -92 104 103 c93 92 107 101
125 91 12 -6 21 -18 21 -28 0 -22 -260 -282 -282 -282 -30 0 -38 35 -38 164 0
100 3 128 16 140 12 12 20 13 35 6 17 -9 19 -22 19 -102z m-532 82 c53 -32 74
-75 69 -143 -3 -47 -9 -63 -33 -88 -16 -17 -43 -38 -61 -45 -40 -17 -184 -19
-201 -2 -18 18 -16 152 3 168 28 23 44 4 47 -57 l3 -58 64 1 c60 1 67 4 94 34
24 27 28 39 23 69 -3 21 -16 45 -31 59 -23 19 -37 22 -116 22 -93 0 -110 8
-95 45 9 25 191 21 234 -5z"/>
</g>
</svg>
